<svg width="31" height="31" viewBox="0 0 31 31" fill="none" xmlns="http://www.w3.org/2000/svg">
<path d="M16.4281 12.2201C16.432 12.2134 16.4366 12.2134 16.442 12.2201L16.4338 12.2267L16.4281 12.2201Z" fill="#0124DD"/>
<path d="M9.57188 14.5131C9.65813 14.2523 9.7399 14.0058 9.81988 13.7614C9.82973 13.7315 9.84973 13.7247 9.87569 13.7199C10.3075 13.6393 10.7412 13.5707 11.1822 13.5925C11.4935 13.6071 11.7928 13.6707 12.0608 13.8378C12.4243 14.064 12.5906 14.4048 12.6141 14.8226C12.6279 15.0629 12.5888 15.3001 12.5544 15.5353C12.4831 16.0146 12.4097 16.4933 12.3408 16.9725C12.3389 16.9926 12.3316 17.0119 12.3198 17.0282C12.3079 17.0445 12.2918 17.0574 12.2733 17.0654C11.9922 17.2196 11.6872 17.3041 11.3738 17.3554C10.986 17.4226 10.5905 17.4327 10.1998 17.3853C9.8742 17.3444 9.57069 17.2432 9.33433 17.0039C9.23176 16.8988 9.15213 16.7736 9.10051 16.6362C9.04888 16.4988 9.02638 16.3521 9.03443 16.2055C9.04249 16.0589 9.08092 15.9156 9.14729 15.7847C9.21366 15.6537 9.30652 15.538 9.41998 15.4448C9.66231 15.2455 9.94881 15.1464 10.2505 15.0823C10.7074 14.9856 11.1685 14.9987 11.6299 15.0339C11.6875 15.0381 11.7 15.0205 11.7027 14.9691C11.7233 14.6092 11.5072 14.3508 11.1279 14.2813C10.8647 14.2329 10.6063 14.2747 10.3478 14.3171C10.0841 14.3605 9.82454 14.426 9.57188 14.5131ZM11.1858 15.5988C11.0216 15.5978 10.8575 15.6098 10.6952 15.635C10.5197 15.6648 10.3493 15.7111 10.2078 15.8274C10.0479 15.9591 10.0052 16.1357 10.0368 16.3303C10.0667 16.5079 10.1908 16.6052 10.3517 16.6625C10.4254 16.6884 10.5021 16.7049 10.58 16.7117C10.8677 16.7395 11.147 16.6893 11.4246 16.6207C11.4434 16.6182 11.4607 16.6089 11.4731 16.5945C11.4855 16.5802 11.4922 16.5618 11.492 16.5428C11.5299 16.2608 11.5675 15.9785 11.6093 15.697C11.6165 15.6484 11.6003 15.6391 11.5598 15.6314C11.4361 15.611 11.3111 15.6001 11.1858 15.5988Z" fill="#114185"/>
<path d="M22.8952 16.4786C22.8474 16.6236 22.8056 16.7534 22.7615 16.8833C22.7262 16.9898 22.6886 17.0954 22.6552 17.2029C22.652 17.2193 22.644 17.2345 22.6322 17.2464C22.6204 17.2582 22.6054 17.2664 22.589 17.2697C22.1324 17.3915 21.6698 17.4574 21.1983 17.3981C20.6611 17.3303 20.217 17.0996 19.9448 16.6069C19.7774 16.3019 19.7243 15.9698 19.747 15.6274C19.7902 14.9763 20.0615 14.4364 20.5659 14.0183C20.8724 13.764 21.2299 13.6333 21.6232 13.5945C21.8945 13.568 22.1643 13.573 22.429 13.6467C22.968 13.796 23.3273 14.2153 23.3962 14.7703C23.4359 15.0894 23.3962 15.4027 23.3446 15.7164C23.3383 15.7555 23.3186 15.7567 23.2888 15.7567C23.1441 15.7567 22.999 15.7567 22.8543 15.7567C22.1579 15.7567 21.4616 15.7567 20.7652 15.7567C20.7091 15.7567 20.6927 15.7704 20.6918 15.828C20.6841 16.2971 20.9431 16.6069 21.4042 16.686C21.745 16.7457 22.0766 16.6941 22.4075 16.6218C22.573 16.5848 22.7359 16.537 22.8952 16.4786ZM21.6775 15.1476H22.346C22.5502 15.1476 22.5502 15.1476 22.557 14.9434C22.5711 14.5301 22.3183 14.2606 21.9073 14.2376C21.4158 14.2099 20.9524 14.5659 20.833 15.0941C20.8231 15.138 20.833 15.1488 20.8777 15.1485C21.1436 15.1464 21.409 15.1476 21.6775 15.1476Z" fill="#114185"/>
<path d="M24.6112 17.41C24.173 17.4071 23.738 17.3345 23.3226 17.1951C23.2811 17.1808 23.27 17.1688 23.285 17.1238C23.3532 16.9171 23.4186 16.7094 23.481 16.5007C23.4965 16.4493 23.5148 16.4535 23.5559 16.4732C23.955 16.6684 24.4056 16.7319 24.8431 16.6546C24.9457 16.639 25.0431 16.5991 25.1272 16.5383C25.1661 16.5113 25.1985 16.4759 25.2219 16.4348C25.2453 16.3937 25.2593 16.3478 25.2626 16.3006C25.266 16.2534 25.2588 16.206 25.2414 16.162C25.2241 16.118 25.1971 16.0784 25.1624 16.0461C25.0866 15.9759 25.0014 15.9165 24.9093 15.8695C24.681 15.7417 24.4489 15.6221 24.2319 15.474C23.649 15.075 23.7201 14.2445 24.294 13.8801C24.5482 13.7186 24.8267 13.6378 25.1224 13.607C25.6154 13.556 26.092 13.6405 26.5618 13.7819C26.6047 13.7947 26.6158 13.8064 26.5994 13.852C26.5286 14.0481 26.4603 14.2454 26.3961 14.4438C26.3791 14.4961 26.3588 14.4922 26.3185 14.4737C26.0247 14.335 25.703 14.2656 25.3782 14.2707C25.2206 14.2746 25.0669 14.3006 24.9335 14.3937C24.8768 14.4299 24.8335 14.4836 24.8104 14.5468C24.7872 14.6099 24.7854 14.6789 24.8052 14.7432C24.8309 14.8152 24.8794 14.877 24.9434 14.9189C25.0815 15.0228 25.2397 15.0929 25.391 15.1759C25.5761 15.2726 25.7528 15.3846 25.9192 15.5107C26.4111 15.9011 26.3612 16.6448 25.8894 17.0226C25.585 17.2658 25.2287 17.3631 24.8496 17.3977C24.7544 17.4061 24.6598 17.4076 24.6112 17.41Z" fill="#114185"/>
<path d="M27.8304 17.4102C27.398 17.406 26.969 17.3342 26.5588 17.1974C26.5113 17.1816 26.4991 17.1675 26.5167 17.1174C26.5841 16.9151 26.648 16.7115 26.7101 16.5074C26.725 16.4579 26.7399 16.4507 26.7883 16.474C27.1856 16.6674 27.6337 16.731 28.0691 16.656C28.1625 16.6414 28.2519 16.6081 28.3321 16.5581C28.5299 16.4319 28.5541 16.2 28.387 16.0377C28.3169 15.9747 28.2389 15.921 28.1551 15.878C27.9163 15.7425 27.6684 15.6214 27.4436 15.4602C26.9252 15.0857 26.9897 14.4079 27.3066 14.0677C27.5203 13.8388 27.7901 13.7158 28.0894 13.6499C28.4867 13.5604 28.8836 13.5819 29.2802 13.6553C29.4473 13.6851 29.6109 13.7305 29.7744 13.7746C29.8287 13.7899 29.8484 13.806 29.8254 13.868C29.7565 14.0552 29.6938 14.2444 29.6329 14.4351C29.6159 14.4873 29.5989 14.4948 29.5476 14.4724C29.2577 14.3363 28.9409 14.267 28.6207 14.2697C28.4714 14.2724 28.3273 14.2945 28.1972 14.3727C28.0739 14.4464 28.0116 14.5536 28.0301 14.701C28.0417 14.7947 28.0981 14.86 28.1691 14.9138C28.3183 15.0269 28.4899 15.1015 28.6523 15.191C28.8373 15.2934 29.02 15.3999 29.1814 15.5375C29.6338 15.9255 29.5828 16.6447 29.1289 17.0147C28.8851 17.2138 28.6022 17.3171 28.2969 17.3705C28.1426 17.3955 27.9867 17.4088 27.8304 17.4102Z" fill="#114185"/>
<path d="M16.0073 16.5316C15.9921 16.6211 15.9536 16.7014 15.9252 16.7858C15.8712 16.9467 15.8136 17.1061 15.7602 17.2672C15.7563 17.2833 15.7473 17.2978 15.7347 17.3085C15.722 17.3192 15.7063 17.3257 15.6898 17.3269C15.3317 17.3866 14.9696 17.4245 14.6059 17.397C14.063 17.3561 13.5974 17.1583 13.2775 16.6957C13.0519 16.3698 12.9722 15.9995 12.9922 15.6094C13.0256 14.9588 13.3014 14.4264 13.8096 14.0187C14.1009 13.7854 14.4435 13.6708 14.8085 13.623C15.2603 13.559 15.7204 13.5865 16.1613 13.7039C16.2455 13.7269 16.3266 13.7591 16.4093 13.786C16.4391 13.7955 16.4469 13.8084 16.4359 13.8409C16.3654 14.0468 16.2956 14.2533 16.2296 14.4607C16.215 14.5064 16.1944 14.4971 16.1649 14.4855C15.9542 14.3991 15.731 14.3468 15.5038 14.3306C15.0123 14.3029 14.585 14.438 14.2782 14.8472C13.9908 15.2307 13.9463 15.8676 14.254 16.2525C14.4453 16.4913 14.6978 16.6178 14.9974 16.6527C15.3206 16.6903 15.6331 16.628 15.9417 16.5393C15.9613 16.5337 15.9813 16.5298 16.0013 16.525L16.0073 16.5316Z" fill="#114185"/>
<path d="M19.4095 16.5273C19.3408 16.7248 19.262 16.9203 19.2056 17.122C19.1648 17.2692 19.0958 17.339 18.9353 17.3551C18.4876 17.3999 18.04 17.45 17.5923 17.3315C16.8883 17.1444 16.4284 16.5828 16.3902 15.8528C16.3484 15.0596 16.6522 14.4257 17.2912 13.9568C17.5598 13.7602 17.8731 13.6671 18.2002 13.6244C18.6519 13.5606 19.1118 13.588 19.5527 13.705C19.6345 13.7273 19.713 13.7608 19.7944 13.7843C19.8371 13.7969 19.8383 13.8163 19.8243 13.8536C19.756 14.0532 19.6882 14.2529 19.6246 14.454C19.6094 14.5021 19.5912 14.5003 19.5521 14.4854C19.2394 14.366 18.9194 14.3012 18.5819 14.3361C18.0086 14.3976 17.5723 14.7766 17.4622 15.3344C17.3828 15.737 17.4556 16.1053 17.7764 16.3903C18.0322 16.6171 18.3435 16.6804 18.675 16.661C18.9089 16.6456 19.1401 16.6014 19.3632 16.5296C19.3766 16.5273 19.3886 16.5162 19.4095 16.5273Z" fill="#114185"/>
<path d="M8.04028 15.7061L4.32268 11.9885V12.5591L7.46967 15.7061L7.47087 15.7073L4.74496 18.4332L4.74168 18.4299L2.01757 15.7061L2.01518 15.7037L3.35247 14.3665H2.77201L1.43353 15.7049L1.43473 15.7061L4.74049 19.0119L4.74168 19.0107L8.04327 15.7091L8.04028 15.7061Z" fill="#FE6309"/>
<path d="M4.32148 12.9517V13.5223L6.50632 15.7071L4.74615 17.4673L2.98449 15.7059L2.9821 15.7035L4.31939 14.3662H3.73893L2.40045 15.7047L2.40165 15.7059L4.45458 17.7588L4.74167 18.0459L5.03354 17.7544L7.07871 15.7089L4.32148 12.9517Z" fill="#FE6309"/>
<path d="M6.11512 15.7059L5.02493 14.6145L4.73485 14.3245L4.44955 14.6098L3.3537 15.7047L4.45015 16.8012L4.73724 17.0883L5.02851 16.7967L6.1181 15.7089L6.11512 15.7059ZM4.74232 16.5117L3.93654 15.7059L3.93415 15.7035L4.73784 14.8998L5.54361 15.7056L4.74232 16.5117Z" fill="#FE6309"/>
</svg>
