<svg width="29" height="29" viewBox="0 0 29 29" fill="none" xmlns="http://www.w3.org/2000/svg">
<g clip-path="url(#clip0_793_1703)">
<path d="M1.93983 0.849365H27.0602C27.6625 0.849365 28.1506 1.33753 28.1506 1.93977V27.0602C28.1506 27.6624 27.6625 28.1506 27.0602 28.1506H1.93983C1.33763 28.1506 0.849426 27.6624 0.849426 27.0602V1.93977C0.849426 1.33753 1.33763 0.849365 1.93983 0.849365Z" fill="#714E93"/>
<path d="M6.12372 11.8562V12.8648H8.35482V13.7935H6.12372V15.6038H5.09497V10.9277H8.65519V11.8562H6.12372Z" fill="white"/>
<path d="M13.211 15.196C13.08 15.2996 12.9377 15.3881 12.7868 15.4599C12.6261 15.5355 12.4567 15.5911 12.2825 15.6257C12.0801 15.6654 11.8743 15.6845 11.668 15.6826C11.3402 15.6856 11.0152 15.6219 10.7127 15.4955C10.4278 15.3769 10.169 15.2033 9.95117 14.9846C9.73521 14.7652 9.56497 14.5053 9.45017 14.2197C9.32893 13.9205 9.26761 13.6005 9.26972 13.2777V13.2645C9.26731 12.9425 9.32863 12.6231 9.45017 12.325C9.56648 12.0393 9.73653 11.7786 9.95117 11.557C10.1695 11.3334 10.4308 11.1561 10.7194 11.0358C11.0331 10.9065 11.3698 10.8424 11.7091 10.8474C11.9097 10.8459 12.1098 10.8637 12.3069 10.9008C12.4751 10.933 12.6397 10.9822 12.7979 11.0478C12.9416 11.1085 13.0783 11.1846 13.2054 11.2749C13.3291 11.3632 13.4453 11.4615 13.5529 11.5689L12.8974 12.3235C12.73 12.1696 12.5423 12.0395 12.3395 11.9367C12.1405 11.8411 11.9221 11.7932 11.7014 11.7966C11.514 11.7949 11.3282 11.8336 11.1571 11.9102C10.9931 11.9836 10.8463 12.0906 10.7263 12.2241C10.6046 12.36 10.5095 12.5174 10.4458 12.6883C10.3781 12.8688 10.3441 13.0601 10.3455 13.2528V13.2661C10.3443 13.4599 10.3783 13.6523 10.4458 13.8339C10.5085 14.0054 10.6022 14.1639 10.7222 14.3015C10.9697 14.5816 11.3268 14.74 11.7006 14.7357C11.9679 14.7357 12.1939 14.6867 12.3787 14.5886C12.579 14.4796 12.7642 14.3449 12.9297 14.188L13.5843 14.8492C13.4689 14.9741 13.344 15.09 13.211 15.196Z" fill="white"/>
<path d="M18.0671 15.6038V12.5509L16.751 14.5482H16.7233L15.4207 12.571V15.6038H14.4066V10.9277H15.5152L16.7444 12.9051L17.9734 10.9277H19.0823V15.6038H18.0671Z" fill="white"/>
<path d="M23.1571 14.181C23.1619 14.035 23.0945 13.8959 22.9766 13.8095C22.8563 13.7184 22.6629 13.6723 22.3964 13.6714H21.2081V14.7001H22.4306C22.6578 14.7001 22.8359 14.659 22.9651 14.5766C23.0942 14.4943 23.1587 14.3663 23.1585 14.1925L23.1571 14.181ZM22.8965 12.3105C22.8965 12.1546 22.8386 12.0355 22.7229 11.9532C22.6072 11.8708 22.4403 11.8297 22.222 11.8297H21.2065V12.818H22.1543C22.3814 12.818 22.5617 12.7791 22.6954 12.7012C22.8289 12.6233 22.8956 12.4975 22.8956 12.3237L22.8965 12.3105ZM24.0491 14.8823C23.9664 15.0431 23.8449 15.1808 23.6956 15.2829C23.5277 15.3962 23.3403 15.4778 23.143 15.5236C22.9076 15.5793 22.6664 15.6062 22.4245 15.6038H20.2045V10.9277H22.3718C22.8517 10.9277 23.2283 11.0369 23.5016 11.2552C23.7751 11.4735 23.9118 11.7674 23.912 12.1369V12.1516C23.9139 12.2714 23.8971 12.3909 23.862 12.5055C23.8308 12.6034 23.7862 12.6964 23.7294 12.7819C23.6753 12.8629 23.6101 12.936 23.536 12.9991C23.4636 13.061 23.3847 13.1148 23.3005 13.1594C23.5708 13.262 23.7835 13.4012 23.9388 13.5769C24.0941 13.7526 24.1716 13.996 24.1715 14.307V14.3202C24.1762 14.5147 24.1342 14.7074 24.0491 14.8823Z" fill="white"/>
<path d="M24.0946 18.5999V20.8895H4.99268V19.6854C4.99253 19.086 5.47824 18.6 6.07755 18.5999C6.07773 18.5999 6.07792 18.5999 6.07811 18.5999H24.0946Z" fill="#F4BB2D"/>
<path d="M4.99268 21.6309H24.0946V23.9206H6.07811C5.4788 23.9207 4.99283 23.435 4.99268 22.8357C4.99268 22.8354 4.99268 22.8352 4.99268 22.8349V21.6309Z" fill="#F4BB2D"/>
</g>
<defs>
<clipPath id="clip0_793_1703">
<rect width="27.3012" height="27.3012" fill="white" transform="translate(0.849426 0.849365)"/>
</clipPath>
</defs>
</svg>
