<svg width="35" height="34" viewBox="0 0 35 34" fill="none" xmlns="http://www.w3.org/2000/svg">
<path d="M0.753189 17C0.753189 26.3277 8.31481 33.8893 17.6425 33.8893C26.9703 33.8893 34.5319 26.3277 34.5319 17C34.5319 7.67222 26.9703 0.110596 17.6425 0.110596C8.31481 0.110596 0.753189 7.67222 0.753189 17Z" fill="#162D4C"/>
<path d="M16.2313 7.28851V7.27441H24.6047V7.28909L16.2313 7.28851Z" fill="#E4B935"/>
<path d="M16.2313 7.28833H24.6047C24.5414 7.59276 24.4792 7.89749 24.4145 8.20163C24.1667 9.36546 23.918 10.5289 23.6687 11.692C23.568 12.1647 23.4672 12.6378 23.3654 13.11C23.3524 13.1675 23.3582 13.188 23.4229 13.1888C23.6531 13.1923 23.8833 13.1888 24.1135 13.1799C24.2261 13.1732 24.3391 13.1805 24.4499 13.2018C24.6513 13.2444 24.7074 13.3897 24.5869 13.5586C24.5194 13.6465 24.4318 13.7167 24.3313 13.7634C24.1043 13.8806 23.8586 13.9306 23.6085 13.9631C23.4853 13.982 23.3608 13.9917 23.2362 13.9919C23.1878 13.9919 23.1755 14.0144 23.1674 14.0532C23.0907 14.4177 23.0133 14.7829 22.9352 15.1489L22.2248 18.4989C22.2104 18.5668 22.196 18.6344 22.1825 18.7029C22.1756 18.7414 22.1617 18.7647 22.1177 18.7567C22.1058 18.7555 22.0937 18.7555 22.0818 18.7567H13.8888C13.7898 18.7567 13.7901 18.7567 13.8114 18.6554C14.2215 16.7241 14.6315 14.7927 15.0412 12.8614C15.1327 12.4305 15.2245 11.9999 15.3166 11.5694C15.3246 11.5445 15.3229 11.5175 15.312 11.4937C15.1897 11.2517 15.1508 10.989 15.1252 10.7237C15.0599 10.0492 15.2167 9.40498 15.4006 8.76561C15.4538 8.58145 15.6541 8.46808 15.8725 8.49283C15.9528 8.50175 15.9758 8.47988 15.9908 8.40392C16.0636 8.04021 16.1433 7.67794 16.221 7.31509C16.2236 7.30588 16.2271 7.29692 16.2313 7.28833ZM19.08 13.2446C19.1014 13.2423 19.123 13.2423 19.1445 13.2446C19.4075 13.3045 19.5421 13.1491 19.6486 12.9463C19.6607 12.9229 19.673 12.8994 19.6834 12.8755C19.7574 12.7071 19.7571 12.7068 19.621 12.5877C19.612 12.5793 19.6024 12.5716 19.5922 12.5647C19.5326 12.5284 19.5329 12.4896 19.5695 12.4303C19.6827 12.2462 19.8481 12.0999 20.0447 12.01C20.2413 11.9202 20.4602 11.8909 20.6735 11.9259C20.7465 11.9358 20.8153 11.9657 20.8724 12.0122C21.0594 12.1621 21.2528 12.3034 21.4502 12.4398C21.6317 12.5687 21.8213 12.6861 22.0176 12.7912C22.0904 12.8291 22.0944 12.8274 22.0878 12.7491C22.0751 12.6012 22.0605 12.4534 22.0438 12.3057C22.0067 11.9737 21.9062 11.6678 21.6939 11.4011C21.5417 11.21 21.3969 11.0129 21.2415 10.8241C21.2264 10.8079 21.2152 10.7884 21.2088 10.7671C21.2023 10.7459 21.2009 10.7235 21.2044 10.7016C21.239 10.4294 21.2395 10.4276 21.0698 10.2124C20.6957 9.73819 20.2514 9.33189 19.7974 8.93653C19.7706 8.91626 19.7395 8.90265 19.7064 8.89682C19.3925 8.81959 19.0714 8.77552 18.7482 8.76532C18.5606 8.75669 18.3868 8.77741 18.2329 8.89251C18.1071 8.9866 17.9739 9.00214 17.8159 8.97595C17.3061 8.89107 16.7936 8.82143 16.2817 8.74892C16.1326 8.72792 15.985 8.69137 15.8328 8.69885C15.7019 8.7049 15.6291 8.75036 15.596 8.85826C15.4328 9.39117 15.3082 9.93184 15.3264 10.4944C15.3358 11.0135 15.5077 11.5167 15.8178 11.9331C16.1631 12.3987 16.6304 12.6974 17.1648 12.8996C17.7808 13.1321 18.4248 13.2153 19.0786 13.2435L19.08 13.2446ZM19.0225 16.7761C18.9922 16.796 18.9724 16.8092 18.9522 16.8219C18.7028 16.9784 18.4536 17.1355 18.2027 17.2898C18.152 17.3208 18.1497 17.3369 18.1969 17.3761C18.5998 17.7084 19.0009 18.0434 19.4029 18.3771C19.4129 18.3858 19.4221 18.4005 19.4434 18.3904C19.4477 18.3161 19.4564 18.2399 19.4552 18.1636C19.4551 18.0776 19.4732 17.9924 19.5085 17.9139C19.6204 17.6469 19.7274 17.3778 19.8373 17.1099C19.8514 17.0771 19.8578 17.0414 19.856 17.0058C19.8463 16.7687 19.8371 16.5316 19.8299 16.2944C19.8287 16.2516 19.8156 16.2098 19.7922 16.1739C19.5378 15.7624 19.2852 15.3501 19.0299 14.9389C19.0186 14.9225 19.0113 14.9038 19.0085 14.8841C19.0057 14.8644 19.0075 14.8444 19.0138 14.8255C19.0564 14.6785 19.095 14.5303 19.1373 14.383C19.1532 14.3253 19.1581 14.2652 19.1517 14.2057C19.1367 14.0434 19.1229 13.8811 19.1117 13.7186C19.1085 13.6645 19.0932 13.6466 19.036 13.6463C18.6549 13.6466 18.2747 13.6089 17.9011 13.5338C16.9282 13.3324 16.1441 12.8455 15.5848 12.0148C15.5735 11.9984 15.5681 11.9748 15.5382 11.9682C15.535 11.9817 15.5315 11.995 15.5287 12.0082C15.2804 13.1857 15.0323 14.3633 14.7843 15.5411C14.7532 15.6882 14.7532 15.6899 14.9011 15.7054C14.9966 15.7155 15.0875 15.746 15.1888 15.7092C15.6794 15.5328 16.1732 15.3653 16.6652 15.1912C16.6896 15.18 16.7167 15.1758 16.7433 15.1792C16.77 15.1826 16.7952 15.1933 16.816 15.2102C17.4692 15.6764 18.1237 16.1408 18.7796 16.6035L19.0225 16.7761ZM16.7222 15.4649C16.7222 15.8171 16.7222 16.1644 16.7222 16.512C16.7228 16.5713 16.7112 16.6301 16.688 16.6846C16.4981 17.1367 16.3105 17.5899 16.12 18.0419C16.1092 18.0629 16.1039 18.0862 16.1048 18.1098C16.1058 18.1333 16.1128 18.1563 16.1252 18.1763C16.1654 18.2471 16.2011 18.3202 16.2342 18.3947C16.2403 18.4135 16.2527 18.4297 16.2693 18.4405C16.2859 18.4513 16.3057 18.4561 16.3254 18.454C16.7835 18.4514 17.2413 18.454 17.6991 18.452C17.719 18.452 17.7417 18.4612 17.763 18.4379C17.721 18.3515 17.6804 18.262 17.6349 18.1757C17.6116 18.1342 17.6047 18.0855 17.6154 18.039C17.7276 17.4906 17.8369 16.9413 17.9509 16.3931C17.9624 16.3388 17.9509 16.3117 17.9077 16.2815C17.5321 16.02 17.1572 15.7576 16.7829 15.4942C16.7664 15.4767 16.744 15.4658 16.7199 15.4637L16.7222 15.4649ZM23.0569 13.8092C23.1096 13.8092 23.1622 13.8109 23.2149 13.8092C23.5294 13.7965 23.8399 13.7577 24.1391 13.6541C24.2312 13.6266 24.3161 13.5792 24.3877 13.5151C24.4217 13.4826 24.4525 13.4443 24.4326 13.3951C24.4151 13.3514 24.3676 13.3482 24.3279 13.3479C24.2321 13.3479 24.1357 13.3454 24.0401 13.354C23.636 13.3926 23.2282 13.3623 22.8342 13.2645C22.1333 13.0904 21.5086 12.7598 20.9308 12.3351C20.8558 12.2765 20.7663 12.2396 20.6718 12.2283C20.4022 12.1996 20.168 12.262 19.9936 12.4853C19.9614 12.5264 19.9605 12.5526 20.0028 12.59C20.2252 12.7871 20.4649 12.9639 20.719 13.118C21.4355 13.5548 22.2081 13.8086 23.0546 13.808L23.0569 13.8092ZM20.9121 13.4979C20.9196 13.5479 20.9265 13.5842 20.9302 13.623C20.942 13.7468 20.9826 13.867 20.9702 13.9931C20.9322 14.3795 20.8499 14.7593 20.7993 15.144C20.7601 15.4436 20.7201 15.7434 20.7363 16.0461C20.7492 16.2907 20.8286 16.5111 21.0361 16.6564C21.2318 16.7934 21.4467 16.8351 21.6726 16.7186C21.6901 16.7112 21.7049 16.6984 21.7147 16.682C21.7246 16.6657 21.7289 16.6467 21.7273 16.6277C21.7263 16.5463 21.7184 16.4651 21.7034 16.3851C21.6933 16.3344 21.6769 16.3212 21.6222 16.331C21.4191 16.3675 21.2795 16.2214 21.3192 16.0197C21.354 15.8424 21.4245 15.6772 21.4919 15.5112C21.6556 15.1127 21.8501 14.7277 22.0202 14.3315C22.0636 14.2198 22.0903 14.1024 22.0993 13.983C22.1039 13.9439 22.0993 13.9237 22.0504 13.9174C21.9699 13.9056 21.8901 13.8891 21.8116 13.8679C21.4966 13.7852 21.194 13.6608 20.9121 13.4979Z" fill="#DFAC0F"/>
<path d="M19.2103 22.082C19.2946 22.0955 19.3773 22.1179 19.4569 22.1488C19.7182 22.2578 19.8575 22.4601 19.8701 22.736C19.8937 23.2456 19.6483 23.62 19.2431 23.9005C18.9827 24.0799 18.6736 24.1751 18.3575 24.1733C17.9382 24.1765 17.5187 24.1733 17.0992 24.1733C16.9869 24.1733 16.9616 24.1417 16.9841 24.0329C17.2378 22.8031 17.4917 21.5733 17.7457 20.3434C17.7716 20.2171 17.8033 20.1924 17.9299 20.1924C18.2006 20.1924 18.4714 20.1924 18.7425 20.1924C18.9931 20.1924 19.2403 20.2212 19.4722 20.3233C19.7237 20.4341 19.9124 20.6079 19.9395 20.8945C19.978 21.3034 19.8402 21.6472 19.5107 21.905C19.4169 21.9742 19.3163 22.0335 19.2103 22.082ZM18.1005 23.7086V23.7043C18.1891 23.7043 18.2778 23.708 18.3661 23.7043C18.7917 23.6839 19.0708 23.4384 19.1476 23.02C19.2098 22.6799 19.0446 22.4446 18.7053 22.3933C18.4936 22.362 18.2798 22.3859 18.0671 22.3784C18.032 22.3784 18.03 22.3979 18.0251 22.4221C18.0015 22.5392 17.9771 22.6563 17.9526 22.7732C17.8928 23.0609 17.8341 23.3487 17.7722 23.6364C17.7595 23.6939 17.7705 23.7155 17.8349 23.7112C17.923 23.7043 18.0119 23.7086 18.1005 23.7086ZM18.3393 21.9128C18.4302 21.9183 18.5213 21.9131 18.611 21.8973C18.9416 21.8216 19.1939 21.5272 19.2267 21.1779C19.2529 20.9002 19.1306 20.7351 18.8587 20.6792C18.7381 20.6545 18.6159 20.6614 18.4944 20.6536C18.411 20.6482 18.3828 20.6735 18.367 20.7566C18.2976 21.1227 18.2208 21.4872 18.1425 21.8518C18.1301 21.9094 18.1474 21.916 18.1957 21.9128C18.2441 21.9096 18.2913 21.9128 18.3393 21.9128Z" fill="white"/>
<path d="M22.56 21.6551C22.5977 21.5615 22.6325 21.4824 22.6613 21.4027C22.6694 21.3712 22.6886 21.3437 22.7153 21.3251C22.7421 21.3066 22.7746 21.2983 22.8069 21.3017C22.9292 21.3043 23.0515 21.3017 23.1738 21.3017C23.2644 21.3017 23.2909 21.3354 23.2736 21.422C23.1394 22.0855 23.0051 22.7492 22.8708 23.4129C22.8572 23.4664 22.8525 23.5218 22.857 23.5769C22.8694 23.669 22.9001 23.7015 22.9922 23.7136C23.0498 23.7211 23.0739 23.7527 23.0642 23.8068C23.0478 23.8986 23.0288 23.9901 23.0066 24.0807C23.0019 24.1084 22.9872 24.1334 22.9653 24.151C22.9434 24.1686 22.9158 24.1776 22.8878 24.1763C22.7726 24.1816 22.6573 24.1704 22.5454 24.1429C22.3684 24.0963 22.2717 23.982 22.2493 23.7976C22.2467 23.7766 22.2458 23.7553 22.2438 23.7306C22.2127 23.738 22.2018 23.7639 22.1863 23.7818C21.8295 24.1714 21.3875 24.3095 20.8724 24.22C20.5254 24.1596 20.3096 23.9429 20.2319 23.5968C20.1654 23.3018 20.2011 23.0106 20.2607 22.7203C20.3309 22.375 20.4491 22.0495 20.6635 21.7624C21.0338 21.262 21.63 21.1558 22.0835 21.2695C22.2933 21.3239 22.4481 21.451 22.56 21.6551ZM20.8623 23.2506C20.8624 23.3155 20.868 23.3803 20.879 23.4442C20.9104 23.6353 21.0157 23.7412 21.2068 23.7731C21.5808 23.8359 21.9388 23.6733 22.125 23.3378C22.3096 22.9999 22.3997 22.6185 22.3857 22.2337C22.379 21.9615 22.2498 21.7926 22.0208 21.7255C21.8864 21.6887 21.7453 21.6833 21.6085 21.7097C21.3662 21.7506 21.2249 21.9129 21.1259 22.1195C20.9544 22.4768 20.8934 22.8604 20.8623 23.2506Z" fill="white"/>
<path d="M28.1092 20.2168C28.0296 20.6043 27.9498 20.991 27.8698 21.377C27.7904 21.7634 27.7113 22.1499 27.6313 22.5389C27.6687 22.5366 27.6808 22.5101 27.6983 22.4929C28.0577 22.1369 28.4177 21.7816 28.7745 21.423C28.8108 21.3834 28.8555 21.3522 28.9052 21.3318C28.9549 21.3114 29.0085 21.3021 29.0622 21.3048C29.1937 21.3097 29.3258 21.3048 29.4576 21.3073C29.4864 21.3073 29.5226 21.2996 29.5353 21.3284C29.548 21.3571 29.5129 21.3773 29.493 21.3957C29.0518 21.811 28.6092 22.2255 28.1653 22.6393C28.1187 22.6828 28.1187 22.7098 28.1518 22.761C28.4269 23.1872 28.6985 23.6156 28.9722 24.0432C28.9851 24.0634 28.9981 24.0838 29.0093 24.1045C29.0329 24.1477 29.02 24.1779 28.971 24.1782C28.7624 24.1782 28.5538 24.1802 28.3455 24.1756C28.283 24.1756 28.2471 24.1247 28.2166 24.0726C28.0096 23.7169 27.8018 23.362 27.5933 23.0079C27.5807 22.9863 27.5746 22.9587 27.5427 22.9438C27.4834 23.2315 27.425 23.5155 27.366 23.8001C27.3476 23.8893 27.33 23.9785 27.3099 24.0671C27.2897 24.1557 27.2561 24.1796 27.17 24.1802C27.036 24.1802 26.9016 24.1802 26.7672 24.1802C26.6475 24.1802 26.6251 24.1537 26.6489 24.0389C26.7226 23.683 26.7974 23.327 26.8711 22.9708C27.0326 22.1937 27.1929 21.4177 27.3519 20.6429C27.3544 20.6232 27.362 20.6045 27.3739 20.5885C27.3858 20.5726 27.4016 20.56 27.4198 20.552C27.6255 20.4502 27.8295 20.3448 28.0344 20.2415C28.0562 20.2258 28.0823 20.2171 28.1092 20.2168Z" fill="white"/>
<path d="M24.5645 21.7662C24.6643 21.6326 24.7794 21.5112 24.9075 21.4045C25.2099 21.1571 25.8228 21.1956 26.1071 21.4555C26.3373 21.6664 26.3997 21.9366 26.35 22.2295C26.2852 22.609 26.1992 22.9848 26.1241 23.3626C26.1077 23.4446 26.0921 23.5278 26.1149 23.6118C26.1307 23.6708 26.156 23.7183 26.23 23.7177C26.2921 23.7177 26.3163 23.7557 26.3059 23.8129C26.2895 23.9045 26.2711 23.9962 26.2498 24.0869C26.2449 24.1135 26.2306 24.1374 26.2094 24.1542C26.1882 24.171 26.1617 24.1796 26.1347 24.1784C26.0197 24.1847 25.9043 24.1729 25.7929 24.1436C25.5339 24.0708 25.4062 23.8846 25.4188 23.5969C25.4272 23.4015 25.4844 23.215 25.5187 23.0245C25.5653 22.7656 25.6433 22.5123 25.6576 22.2476C25.6609 22.1951 25.6609 22.1424 25.6576 22.0899C25.6375 21.7993 25.4562 21.6606 25.1711 21.709C25.082 21.7234 24.997 21.7564 24.9216 21.806C24.8462 21.8556 24.7822 21.9206 24.7337 21.9967C24.6054 22.1849 24.551 22.3995 24.5055 22.6188C24.4063 23.0965 24.3063 23.5741 24.2054 24.0518C24.1841 24.1525 24.1499 24.1787 24.0468 24.179C23.9079 24.179 23.7686 24.179 23.6296 24.179C23.5413 24.179 23.5145 24.1427 23.5312 24.0558C23.6655 23.3996 23.8003 22.7433 23.9358 22.0871C23.9507 22.0145 23.9686 21.9432 23.9467 21.8672C23.9294 21.8097 23.8984 21.7723 23.8316 21.7668C23.7513 21.7602 23.7341 21.7323 23.7502 21.6517C23.7663 21.5711 23.7824 21.492 23.7991 21.4126C23.8027 21.3823 23.8175 21.3545 23.8406 21.3346C23.8636 21.3146 23.8932 21.304 23.9237 21.3047C24.0412 21.2972 24.1592 21.3086 24.273 21.3386C24.4626 21.3936 24.5418 21.4906 24.5608 21.6868C24.5608 21.7075 24.5608 21.7282 24.5645 21.7662Z" fill="white"/>
<path d="M7.75882 21.9054H8.19331C8.40912 21.9054 8.62493 21.9054 8.84074 21.9054C8.94461 21.9054 8.96965 21.9359 8.94922 22.0377C8.9331 22.1174 8.91584 22.1969 8.898 22.2763C8.87527 22.3764 8.84045 22.404 8.7314 22.404C8.40049 22.404 8.06958 22.404 7.73896 22.4017C7.67595 22.4017 7.64976 22.4138 7.63624 22.482C7.5361 22.989 7.42964 23.4946 7.32576 24.001C7.29699 24.1449 7.27397 24.1645 7.12434 24.1645C6.98766 24.1645 6.85098 24.1645 6.71459 24.1645C6.61561 24.1645 6.59 24.1325 6.61014 24.0353C6.73099 23.4494 6.85214 22.8638 6.97356 22.2783C7.10593 21.6385 7.2379 20.9989 7.3695 20.3593C7.40173 20.2028 7.42331 20.1838 7.58502 20.1841L9.45536 20.1875C9.58888 20.1875 9.60902 20.212 9.58168 20.3395C9.56557 20.4143 9.55032 20.4894 9.53248 20.5639C9.51032 20.6569 9.47752 20.6827 9.38199 20.6827C8.95037 20.6827 8.51875 20.6827 8.08714 20.6827C8.02959 20.6827 8.00542 20.6934 7.99333 20.7547C7.91852 21.1359 7.83852 21.5175 7.75882 21.9054Z" fill="white"/>
<path d="M13.4192 24.2367C13.1914 24.2346 12.9655 24.1958 12.7502 24.1216C12.6743 24.098 12.6052 24.0565 12.5487 24.0005C12.4912 23.9404 12.4912 23.8854 12.5416 23.8209C12.5744 23.7798 12.6109 23.7418 12.646 23.7021C12.7323 23.6034 12.7467 23.6 12.8762 23.6446C13.0558 23.705 13.2365 23.7597 13.4272 23.7692C13.5961 23.7781 13.7622 23.7715 13.9216 23.7064C13.9843 23.6818 14.04 23.642 14.0835 23.5905C14.127 23.539 14.157 23.4775 14.1708 23.4115C14.1975 23.3076 14.1673 23.236 14.0761 23.1784C13.979 23.1214 13.8752 23.0768 13.7671 23.0455C13.6445 23.0058 13.5222 22.9629 13.3976 22.9304C12.9516 22.8115 12.8443 22.4752 12.9314 22.0922C13.0353 21.6361 13.3962 21.3153 13.8758 21.2468C14.2174 21.1987 14.5546 21.218 14.8763 21.3599C14.9409 21.3854 15.0006 21.422 15.0527 21.4681C15.1062 21.5193 15.1102 21.5619 15.0642 21.6186C15.0067 21.687 14.9468 21.7515 14.8895 21.82C14.8608 21.8536 14.8294 21.8513 14.7926 21.8407C14.6524 21.8007 14.5186 21.7394 14.3745 21.7132C14.2102 21.6844 14.0456 21.6744 13.8833 21.721C13.8133 21.7395 13.7493 21.7756 13.6973 21.826C13.6454 21.8764 13.6072 21.9393 13.5866 22.0087C13.5348 22.1627 13.5915 22.2726 13.7463 22.3212C13.938 22.3814 14.1305 22.4383 14.3218 22.4967C14.4186 22.5236 14.5116 22.5623 14.5989 22.6118C14.7606 22.7082 14.8406 22.853 14.8501 23.038C14.8757 23.5346 14.6084 23.9286 14.1158 24.1219C13.9043 24.2048 13.6839 24.2376 13.4192 24.2367Z" fill="white"/>
<path d="M15.8241 21.733C15.7363 21.733 15.6477 21.733 15.5594 21.733C15.4569 21.733 15.4342 21.7062 15.4538 21.6081C15.4679 21.5376 15.4825 21.4674 15.4995 21.3978C15.5043 21.369 15.5196 21.3429 15.5424 21.3247C15.5653 21.3065 15.5941 21.2973 15.6233 21.2991C15.7024 21.2991 15.7818 21.2945 15.8606 21.2991C15.9136 21.3028 15.9297 21.2827 15.938 21.2338C15.9599 21.1043 15.9881 20.9748 16.0129 20.8462C16.0175 20.8226 16.0195 20.801 16.0457 20.7886C16.2825 20.6695 16.519 20.5492 16.7624 20.4258C16.7688 20.5032 16.7437 20.5679 16.7314 20.6335C16.6937 20.835 16.6525 21.0326 16.6099 21.2318C16.5987 21.2838 16.6065 21.3037 16.666 21.3005C16.7639 21.2956 16.8626 21.2982 16.9607 21.3005C17.0401 21.302 17.0649 21.3307 17.0508 21.4093C17.0367 21.4878 17.0197 21.5592 17.0016 21.6334C16.9834 21.7077 16.9374 21.7362 16.8652 21.7356C16.7621 21.7356 16.6588 21.7356 16.5558 21.7356C16.519 21.7356 16.5003 21.7439 16.4922 21.7831C16.3854 22.3183 16.2776 22.8531 16.1688 23.3875C16.1556 23.4488 16.1587 23.5125 16.1777 23.5723C16.1923 23.6133 16.2194 23.6486 16.2553 23.6731C16.2912 23.6977 16.334 23.7102 16.3774 23.7089C16.5676 23.7138 16.5694 23.7156 16.5331 23.9029C16.5219 23.9604 16.5092 24.02 16.4957 24.0781C16.4917 24.1047 16.4783 24.1289 16.4578 24.1464C16.4373 24.1638 16.4112 24.1732 16.3843 24.1728C16.2313 24.1765 16.0767 24.1866 15.9239 24.1596C15.6247 24.106 15.4765 23.9294 15.4713 23.622C15.4679 23.4206 15.5228 23.2287 15.5623 23.0342C15.6486 22.6075 15.7375 22.181 15.825 21.7543C15.8256 21.7472 15.8253 21.74 15.8241 21.733Z" fill="white"/>
<path d="M11.8514 21.6202C11.8792 21.5845 11.9089 21.5502 11.9403 21.5175C12.1552 21.3138 12.4179 21.2456 12.7062 21.251C12.7638 21.251 12.7888 21.2694 12.7733 21.3342C12.7422 21.462 12.7183 21.5914 12.6907 21.7201C12.6662 21.8352 12.6286 21.8541 12.5137 21.84C12.2194 21.8041 11.8974 21.9054 11.8016 22.3292C11.6738 22.8961 11.5515 23.4644 11.4275 24.0321C11.3987 24.1676 11.3734 24.1883 11.233 24.188C11.1061 24.188 10.9789 24.188 10.852 24.188C10.7527 24.188 10.7283 24.1561 10.7493 24.0583C10.8907 23.4011 11.0322 22.744 11.174 22.0872C11.1892 22.0293 11.1968 21.9696 11.1964 21.9097C11.1918 21.8142 11.1573 21.7744 11.0615 21.7589C11.0039 21.7497 10.9769 21.7175 10.9881 21.6588C11.0045 21.5724 11.0209 21.4861 11.0405 21.3998C11.0445 21.3707 11.0591 21.3442 11.0814 21.3252C11.1038 21.3062 11.1323 21.2961 11.1616 21.2968C11.3101 21.2945 11.4589 21.2968 11.603 21.3408C11.7371 21.3817 11.8194 21.468 11.8309 21.6136L11.8514 21.6202Z" fill="white"/>
<path d="M9.33394 23.6855C9.33998 23.4804 9.39926 23.2844 9.44184 23.0859C9.55895 22.5391 9.67923 21.9924 9.79865 21.4457C9.82051 21.3453 9.85619 21.318 9.95691 21.3174C10.0912 21.3174 10.2255 21.3174 10.3597 21.3174C10.4607 21.3174 10.4852 21.3462 10.4642 21.4437C10.3228 22.0986 10.181 22.7533 10.0386 23.4078C10.0191 23.4871 10.0121 23.569 10.0176 23.6504C10.0263 23.7422 10.0588 23.777 10.1474 23.7903C10.2003 23.7983 10.2248 23.8297 10.2159 23.88C10.1992 23.9744 10.1802 24.0682 10.1583 24.1612C10.1529 24.186 10.139 24.2082 10.119 24.224C10.099 24.2397 10.0741 24.248 10.0487 24.2475C9.90482 24.2521 9.76095 24.2406 9.62571 24.1833C9.42515 24.0999 9.32876 23.9313 9.33394 23.6855Z" fill="white"/>
<path d="M19.3867 25.9336C19.6296 26.0714 19.6508 26.3479 19.4442 26.5473C19.2935 26.6941 18.9643 26.7413 18.7773 26.6434C18.7337 26.6224 18.6969 26.5894 18.6715 26.5483C18.646 26.5072 18.6328 26.4596 18.6334 26.4112C18.6277 26.3282 18.6455 26.2452 18.6847 26.1718C18.724 26.0984 18.783 26.0375 18.8552 25.996C18.8912 25.9736 18.9306 25.9566 18.968 25.9384C18.968 25.933 18.968 25.9264 18.9657 25.9252C18.7611 25.8193 18.8066 25.6251 18.9136 25.4729C18.9678 25.4015 19.0453 25.3515 19.1326 25.3316C19.2303 25.3058 19.3325 25.3019 19.4319 25.3201C19.5274 25.3359 19.6149 25.3756 19.6445 25.4781C19.6626 25.5326 19.6664 25.5909 19.6556 25.6474C19.6448 25.7039 19.6196 25.7566 19.5827 25.8006C19.5317 25.8605 19.4644 25.8964 19.3867 25.9336ZM18.8785 26.3393C18.8764 26.3803 18.8896 26.4206 18.9154 26.4525C18.9413 26.4844 18.9781 26.5056 19.0187 26.5119C19.2089 26.5528 19.3927 26.3583 19.3453 26.1666C19.3376 26.1287 19.3171 26.0947 19.2872 26.0702C19.2573 26.0457 19.2199 26.0323 19.1812 26.0323C19.0192 26.0253 18.878 26.1681 18.8785 26.3393ZM19.2765 25.4853C19.249 25.4851 19.2217 25.4903 19.1963 25.5006C19.1708 25.511 19.1476 25.5263 19.128 25.5456C19.1085 25.5649 19.0929 25.5879 19.0823 25.6133C19.0716 25.6386 19.066 25.6658 19.0659 25.6933C19.0647 25.7124 19.0674 25.7315 19.0737 25.7496C19.08 25.7677 19.0899 25.7843 19.1027 25.7985C19.1156 25.8127 19.1311 25.8242 19.1484 25.8323C19.1658 25.8404 19.1846 25.845 19.2037 25.8458C19.3087 25.8475 19.4195 25.7307 19.4218 25.6182C19.4232 25.5393 19.3645 25.4858 19.2765 25.4853Z" fill="white"/>
<path d="M20.7176 25.5788C20.7117 25.5147 20.6848 25.4544 20.6412 25.4071C20.5976 25.3598 20.5396 25.3282 20.4762 25.3172C20.3861 25.3011 20.2934 25.3083 20.2069 25.3382C19.9588 25.4277 19.8688 25.6297 19.8455 25.8682C19.821 26.1249 19.9701 26.2573 20.2273 26.2273C20.3246 26.2158 20.3916 26.1615 20.4607 26.0979C20.4539 26.1816 20.4274 26.2626 20.3833 26.3341C20.3087 26.4688 20.1974 26.5372 20.0397 26.5108C19.9874 26.5048 19.9359 26.4938 19.8858 26.478C19.7994 26.4455 19.7974 26.5217 19.773 26.5611C19.7425 26.6103 19.7957 26.621 19.8239 26.6348C20.0619 26.7531 20.3231 26.7021 20.4857 26.4863C20.6894 26.2196 20.7608 25.9103 20.7176 25.5788ZM20.5116 25.7062C20.5011 25.7872 20.475 25.8654 20.4348 25.9364C20.3893 26.011 20.3269 26.0559 20.2351 26.0515C20.12 26.0487 20.0696 25.9972 20.0722 25.8654C20.0775 25.7872 20.0978 25.7108 20.1321 25.6403C20.1536 25.5919 20.1893 25.5512 20.2345 25.5235C20.3015 25.4847 20.3755 25.4637 20.4448 25.508C20.5142 25.5523 20.5245 25.6286 20.5116 25.7062Z" fill="white"/>
<path d="M21.3666 26.3516H20.8573C20.7868 26.3516 20.7733 26.3295 20.8055 26.2653C20.8183 26.2425 20.834 26.2214 20.8521 26.2026C21.0849 25.9355 21.3214 25.6717 21.5496 25.4009C21.6167 25.3212 21.6935 25.3295 21.7767 25.3339C21.8236 25.3362 21.8054 25.375 21.8 25.4003C21.7593 25.5995 21.7182 25.7984 21.6768 25.9971C21.6697 26.042 21.6601 26.0865 21.648 26.1303C21.6316 26.181 21.6541 26.1839 21.6955 26.1862C21.728 26.1879 21.7859 26.1574 21.7844 26.2293C21.7824 26.3272 21.7611 26.3582 21.688 26.3505C21.6149 26.3427 21.5893 26.3718 21.5847 26.4368C21.5814 26.4605 21.5767 26.4839 21.5706 26.507C21.5347 26.6831 21.5347 26.6817 21.3548 26.6719C21.3102 26.6693 21.3022 26.6514 21.3102 26.6143C21.3289 26.53 21.3465 26.4457 21.3666 26.3516ZM21.5013 25.6944L21.0913 26.1836C21.1954 26.1836 21.2803 26.1836 21.3652 26.1836C21.3705 26.1843 21.3759 26.1839 21.381 26.1825C21.3861 26.181 21.3909 26.1785 21.395 26.1751C21.3991 26.1716 21.4025 26.1674 21.4049 26.1626C21.4073 26.1579 21.4087 26.1527 21.4089 26.1473C21.4377 26.0034 21.4673 25.859 21.501 25.6941L21.5013 25.6944Z" fill="white"/>
<path d="M13.1587 26.6878C13.0489 26.6877 12.9401 26.6662 12.8385 26.6245C12.8131 26.6136 12.7634 26.607 12.7861 26.567C12.8088 26.527 12.8129 26.4493 12.894 26.4686C13.0051 26.4981 13.1197 26.5122 13.2347 26.5106C13.2951 26.5092 13.3543 26.4933 13.4073 26.4642C13.5411 26.3894 13.546 26.2467 13.4137 26.1687C13.3485 26.1342 13.2813 26.1038 13.2122 26.0778C12.9282 25.9555 12.8756 25.6784 13.1009 25.4638C13.2822 25.2911 13.5006 25.2764 13.7316 25.3357C13.7523 25.3412 13.7725 25.3487 13.7929 25.3556C13.9025 25.3933 13.9046 25.4013 13.8447 25.496C13.8416 25.5029 13.8372 25.5092 13.8316 25.5144C13.8261 25.5196 13.8196 25.5237 13.8124 25.5263C13.8053 25.529 13.7977 25.5302 13.7901 25.53C13.7825 25.5297 13.7751 25.5279 13.7682 25.5248C13.6558 25.4898 13.5378 25.4769 13.4206 25.4868C13.3808 25.4893 13.3422 25.5011 13.3079 25.5214C13.2737 25.5418 13.2447 25.5699 13.2235 25.6036C13.1659 25.6971 13.1872 25.782 13.2853 25.8301C13.3518 25.8626 13.422 25.8876 13.4899 25.9164C13.7828 26.0407 13.8243 26.3676 13.5728 26.5638C13.4681 26.6444 13.3296 26.687 13.1587 26.6878Z" fill="white"/>
<path d="M14.8569 25.8476C14.9239 25.7754 14.98 25.7072 15.0735 25.6865C15.327 25.6306 15.502 25.7998 15.4502 26.0536C15.426 26.173 15.4004 26.2922 15.3774 26.4119C15.3693 26.4544 15.3644 26.4927 15.4217 26.5163C15.4666 26.5347 15.4277 26.5793 15.4263 26.6121C15.4269 26.6193 15.4259 26.6265 15.4236 26.6333C15.4212 26.64 15.4174 26.6462 15.4125 26.6515C15.4076 26.6567 15.4017 26.6609 15.3951 26.6637C15.3885 26.6666 15.3814 26.668 15.3742 26.6679C15.2171 26.6858 15.1187 26.5848 15.1463 26.4283C15.167 26.3106 15.1924 26.1937 15.2154 26.0763C15.2196 26.0574 15.2222 26.0382 15.2232 26.0188C15.2252 25.9506 15.2232 25.8815 15.1509 25.8462C15.0888 25.8154 14.9912 25.8415 14.9354 25.9037C14.8796 25.9659 14.854 26.0476 14.8367 26.131C14.8033 26.2901 14.7688 26.449 14.7374 26.6087C14.7371 26.6175 14.735 26.6262 14.7311 26.6341C14.7272 26.6421 14.7217 26.6491 14.7149 26.6548C14.7081 26.6605 14.7002 26.6646 14.6917 26.6671C14.6832 26.6695 14.6743 26.6701 14.6655 26.6688C14.4972 26.6728 14.4975 26.6743 14.5314 26.5094C14.5688 26.3266 14.6059 26.1439 14.6428 25.9612C14.6517 25.9166 14.6644 25.8695 14.5985 25.8528C14.5697 25.8453 14.576 25.818 14.5835 25.799C14.5967 25.7659 14.5803 25.7178 14.631 25.7034C14.6553 25.6957 14.6811 25.6935 14.7064 25.6968C14.7318 25.7001 14.7561 25.709 14.7776 25.7227C14.7991 25.7365 14.8174 25.7548 14.8311 25.7764C14.8448 25.7979 14.8536 25.8222 14.8569 25.8476Z" fill="white"/>
<path d="M17.0134 26.2635C16.9513 26.2635 16.8885 26.2666 16.8267 26.2635C16.7806 26.2606 16.7691 26.2802 16.7691 26.321C16.7631 26.4724 16.8448 26.5527 16.9947 26.5342C17.0564 26.5265 17.1171 26.5126 17.176 26.4928C17.2217 26.4776 17.2387 26.4928 17.2568 26.5317C17.275 26.5705 17.2669 26.6004 17.2281 26.62C17.1098 26.68 16.9766 26.7042 16.8448 26.6896C16.6218 26.6678 16.5208 26.5386 16.5418 26.3141C16.5508 26.1922 16.5829 26.073 16.6365 25.9631C16.7467 25.7435 16.953 25.6422 17.1895 25.6897C17.327 25.7185 17.4082 25.8086 17.4151 25.9487C17.4174 25.9917 17.4145 26.0349 17.4065 26.0773C17.3777 26.216 17.3201 26.2629 17.1789 26.2658C17.1239 26.2658 17.0687 26.2658 17.0137 26.2658L17.0134 26.2635ZM16.8071 26.1061H17.1141C17.1259 26.1075 17.1378 26.1055 17.1485 26.1004C17.1592 26.0953 17.1682 26.0873 17.1745 26.0773C17.2056 26.0241 17.1909 25.9124 17.1458 25.8687C17.1006 25.825 17.0333 25.8215 16.9665 25.8595C16.873 25.9121 16.8387 26.0062 16.8071 26.1061Z" fill="white"/>
<path d="M10.3855 20.2227C10.4621 20.2227 10.5386 20.221 10.6157 20.2227C10.6853 20.2247 10.7127 20.2566 10.6994 20.3234C10.6695 20.4734 10.6379 20.6228 10.6045 20.7717C10.5869 20.8485 10.5469 20.8799 10.4664 20.8805C10.3225 20.8805 10.1786 20.8805 10.0348 20.8805C9.94498 20.879 9.91966 20.8448 9.93894 20.7573C9.96771 20.6172 9.99879 20.4771 10.0302 20.3375C10.0489 20.2541 10.086 20.2244 10.1697 20.2224C10.2414 20.2224 10.3136 20.2224 10.3849 20.2224L10.3855 20.2227Z" fill="white"/>
<path d="M18.2478 25.6086C18.1701 25.6408 18.1005 25.6699 18.0303 25.6978C18.013 25.7047 17.988 25.7168 17.9773 25.7099C17.9566 25.6966 17.973 25.6704 17.9742 25.6497C17.9785 25.5749 18.0168 25.5315 18.0893 25.5041C18.2211 25.4535 18.3482 25.3933 18.4786 25.3378C18.4976 25.3295 18.5186 25.309 18.5361 25.3211C18.5537 25.3332 18.5387 25.3611 18.5361 25.3807C18.4536 25.7864 18.3695 26.1918 18.2878 26.5975C18.2769 26.6519 18.2527 26.6715 18.196 26.6706C18.0323 26.6683 18.0335 26.6706 18.0671 26.5109C18.127 26.2278 18.1851 25.9441 18.2438 25.6607C18.2458 25.6471 18.2455 25.6325 18.2478 25.6086Z" fill="white"/>
<path d="M15.638 26.3437C15.641 26.2115 15.6726 26.0815 15.7307 25.9627C15.8507 25.7124 16.1707 25.5999 16.415 25.723C16.446 25.7389 16.5039 25.7469 16.4834 25.8042C16.4601 25.868 16.4034 25.8954 16.3476 25.8689C16.1275 25.7653 15.9718 25.8957 15.9128 26.0793C15.8811 26.1698 15.8667 26.2654 15.8703 26.3612C15.8777 26.4804 15.9517 26.5437 16.0717 26.5339C16.1286 26.5264 16.1845 26.5121 16.238 26.4913C16.2668 26.4818 16.2927 26.4726 16.3073 26.5126C16.3194 26.5457 16.3427 26.5745 16.3033 26.6081C16.1822 26.7114 15.8697 26.7195 15.7451 26.6199C15.6542 26.5491 15.6357 26.4502 15.638 26.3437Z" fill="white"/>
<path d="M13.9317 26.4517C13.9581 26.3196 13.9892 26.1639 14.0217 26.0059C14.0384 25.9239 14.058 25.8425 14.0724 25.7602C14.0726 25.7514 14.0747 25.7427 14.0785 25.7347C14.0824 25.7267 14.0879 25.7196 14.0946 25.7139C14.1014 25.7082 14.1093 25.704 14.1178 25.7016C14.1263 25.6991 14.1352 25.6985 14.144 25.6998C14.3141 25.6946 14.3132 25.6932 14.2793 25.8572C14.2416 26.0399 14.2042 26.2223 14.1682 26.4053C14.1595 26.4496 14.1512 26.4917 14.2131 26.5155C14.2568 26.5322 14.2197 26.5731 14.2183 26.605C14.2168 26.637 14.2082 26.6603 14.1716 26.6675C14.0424 26.6928 13.9317 26.6056 13.9317 26.4517Z" fill="white"/>
<path d="M14.2807 25.2889C14.3095 25.2889 14.3316 25.2889 14.3529 25.2889C14.3742 25.2889 14.3935 25.2981 14.3892 25.3223C14.3794 25.3761 14.3673 25.4293 14.3541 25.4823C14.3489 25.5024 14.3305 25.5093 14.3103 25.5131C14.1406 25.5436 14.121 25.5197 14.1555 25.3531C14.1731 25.2627 14.2381 25.2967 14.2807 25.2889Z" fill="white"/>
<path d="M19.0787 13.2436C18.4249 13.2148 17.7809 13.1323 17.1643 12.8983C16.63 12.6969 16.1627 12.3974 15.8174 11.9318C15.5072 11.5154 15.3354 11.0122 15.3259 10.4931C15.3089 9.93052 15.4324 9.38985 15.5955 8.85694C15.6286 8.74904 15.7014 8.70358 15.8323 8.69753C15.9846 8.69005 16.1322 8.72631 16.2812 8.7476C16.7931 8.82011 17.3056 8.88975 17.8155 8.97463C17.9732 9.00082 18.1067 8.98528 18.2324 8.89119C18.3864 8.77609 18.5602 8.75537 18.7478 8.764C19.0711 8.77493 19.3923 8.81978 19.7062 8.8978C19.7393 8.90363 19.7704 8.91724 19.7972 8.93751C20.2512 9.33287 20.6946 9.73917 21.0696 10.2134C21.2393 10.428 21.2388 10.4298 21.2042 10.7025C21.2007 10.7244 21.2022 10.7469 21.2086 10.7681C21.215 10.7894 21.2262 10.8089 21.2414 10.8251C21.3967 11.0139 21.5415 11.211 21.6937 11.402C21.906 11.6688 22.0065 11.9747 22.0436 12.3067C22.0603 12.4542 22.075 12.602 22.0876 12.7501C22.0942 12.8284 22.0902 12.8301 22.0174 12.7921C21.8211 12.6871 21.6316 12.5697 21.45 12.4408C21.2526 12.3044 21.0592 12.1631 20.8722 12.0132C20.8151 11.9666 20.7463 11.9368 20.6734 11.9269C20.46 11.8919 20.2411 11.9212 20.0445 12.011C19.8479 12.1009 19.6825 12.2472 19.5693 12.4313C19.5327 12.4906 19.5324 12.5294 19.592 12.5657C19.6022 12.5726 19.6118 12.5803 19.6208 12.5887C19.7569 12.7067 19.7572 12.707 19.6832 12.8764C19.6729 12.9003 19.6605 12.9239 19.6484 12.9472C19.5419 13.1487 19.4073 13.3055 19.1443 13.2456C19.1225 13.2426 19.1005 13.2419 19.0787 13.2436ZM19.7762 10.7342L19.3874 10.298C19.3549 10.2614 19.3371 10.298 19.3181 10.3135C19.1213 10.485 18.9248 10.6571 18.7288 10.8297C18.7121 10.8444 18.6873 10.8542 18.6839 10.8858L19.7762 10.7342Z" fill="#162D4C"/>
<path d="M19.0202 16.775L18.7782 16.6024C18.1233 16.1385 17.4688 15.6744 16.8146 15.21C16.7938 15.193 16.7686 15.1823 16.742 15.1789C16.7153 15.1756 16.6883 15.1798 16.6639 15.191C16.1718 15.3636 15.678 15.5314 15.1874 15.7089C15.0853 15.7457 14.9944 15.7152 14.8997 15.7052C14.7518 15.6896 14.7518 15.6879 14.7829 15.5409C15.0303 14.3625 15.2779 13.1844 15.5255 12.0068C15.5284 11.9936 15.5319 11.9803 15.535 11.9668C15.5638 11.9734 15.5704 11.997 15.5816 12.0134C16.141 12.8441 16.9251 13.3321 17.898 13.5324C18.2716 13.6075 18.6518 13.6452 19.0329 13.6449C19.0904 13.6449 19.1054 13.6631 19.1085 13.7171C19.1186 13.8797 19.1336 14.042 19.1485 14.2043C19.155 14.2638 19.1501 14.3239 19.1341 14.3816C19.0918 14.5289 19.0533 14.6771 19.0107 14.8241C19.0044 14.8429 19.0025 14.863 19.0053 14.8827C19.0081 14.9024 19.0155 14.9211 19.0268 14.9375C19.282 15.3487 19.5347 15.761 19.789 16.1725C19.8125 16.2084 19.8255 16.2501 19.8267 16.293C19.8339 16.5301 19.8431 16.7672 19.8529 17.0043C19.8547 17.04 19.8483 17.0757 19.8342 17.1085C19.7243 17.3764 19.6173 17.6454 19.5053 17.9125C19.4701 17.991 19.452 18.0761 19.4521 18.1622C19.4521 18.2385 19.4446 18.3147 19.4403 18.389C19.419 18.399 19.4098 18.3844 19.3997 18.3757C18.9969 18.042 18.5969 17.707 18.1938 17.3747C18.1466 17.3358 18.1489 17.3197 18.1995 17.2883C18.4505 17.1341 18.6996 16.977 18.9491 16.8205C18.9701 16.8081 18.99 16.7949 19.0202 16.775Z" fill="#162D4C"/>
<path d="M16.7199 15.4636C16.7434 15.466 16.7653 15.4769 16.7815 15.4941C17.1565 15.7565 17.5314 16.0187 17.9063 16.2805C17.95 16.3107 17.9609 16.3381 17.9494 16.3922C17.8343 16.9389 17.7261 17.4896 17.6139 18.0381C17.6032 18.0845 17.6102 18.1332 17.6335 18.1748C17.679 18.2611 17.7198 18.35 17.7615 18.4369C17.7402 18.4602 17.7175 18.451 17.6977 18.451C17.2399 18.451 16.782 18.451 16.324 18.453C16.3043 18.4551 16.2844 18.4503 16.2678 18.4395C16.2512 18.4287 16.2388 18.4126 16.2327 18.3937C16.1997 18.3195 16.164 18.2461 16.1237 18.1753C16.1113 18.1553 16.1043 18.1324 16.1034 18.1088C16.1025 18.0853 16.1077 18.0619 16.1185 18.041C16.309 17.5889 16.4966 17.1357 16.6865 16.6837C16.7097 16.6291 16.7214 16.5703 16.7208 16.511C16.7187 16.1631 16.7199 15.8158 16.7199 15.4636Z" fill="#162D4C"/>
<path d="M23.0546 13.8079C22.2081 13.8079 21.4355 13.5547 20.7173 13.1174C20.4632 12.9632 20.2235 12.7865 20.0011 12.5894C19.9588 12.5519 19.9596 12.5258 19.9918 12.4846C20.1662 12.2613 20.4004 12.1992 20.6701 12.2277C20.7645 12.2389 20.8541 12.2758 20.929 12.3344C21.5068 12.7591 22.1315 13.0897 22.8325 13.2638C23.2261 13.361 23.6334 13.3908 24.037 13.3519C24.1322 13.3432 24.2286 13.345 24.3247 13.3458C24.3644 13.3458 24.411 13.3493 24.4294 13.393C24.4493 13.4422 24.4185 13.4793 24.3846 13.513C24.3129 13.577 24.228 13.6245 24.1359 13.652C23.8367 13.7556 23.5262 13.7944 23.2117 13.8071C23.1599 13.8097 23.1073 13.8079 23.0546 13.8079Z" fill="#162D4C"/>
<path d="M20.912 13.4978C21.1942 13.6609 21.4971 13.7855 21.8124 13.8681C21.8909 13.8893 21.9707 13.9059 22.0512 13.9176C22.0987 13.924 22.1047 13.9441 22.1001 13.9832C22.0911 14.1026 22.0644 14.2201 22.021 14.3317C21.8509 14.7273 21.6564 15.1123 21.4927 15.5114C21.4245 15.6775 21.354 15.8426 21.32 16.0199C21.2803 16.2213 21.4199 16.3678 21.623 16.3312C21.6777 16.3214 21.6941 16.3347 21.7042 16.3853C21.7192 16.4653 21.7271 16.5465 21.7281 16.6279C21.7297 16.6469 21.7254 16.6659 21.7155 16.6823C21.7057 16.6986 21.6909 16.7114 21.6734 16.7188C21.4475 16.8354 21.2326 16.7936 21.0369 16.6567C20.8294 16.5114 20.7491 16.2909 20.7371 16.0464C20.7209 15.7436 20.7609 15.4438 20.8001 15.1443C20.8507 14.7599 20.933 14.38 20.971 13.9933C20.9834 13.8673 20.9422 13.747 20.931 13.6233C20.9264 13.5853 20.9195 13.547 20.912 13.4978Z" fill="#162D4C"/>
<path d="M19.776 10.7341L18.6826 10.8857C18.6861 10.8541 18.7114 10.8443 18.7275 10.8296C18.9234 10.657 19.1198 10.4849 19.3168 10.3134C19.3358 10.297 19.3536 10.2613 19.3862 10.2979L19.776 10.7341Z" fill="#DCAA10"/>
</svg>
