<svg width="33" height="34" viewBox="0 0 33 34" fill="none" xmlns="http://www.w3.org/2000/svg">
<path fill-rule="evenodd" clip-rule="evenodd" d="M0.161652 16.686C0.161652 7.73834 7.41513 0.484863 16.3628 0.484863C25.3104 0.484863 32.5639 7.73834 32.5639 16.686V17.0764C32.5639 26.024 25.3104 33.2775 16.3628 33.2775C7.41513 33.2775 0.161652 26.024 0.161652 17.0764V16.686Z" fill="#D94F00"/>
<path fill-rule="evenodd" clip-rule="evenodd" d="M18.5234 7.90942H26.0465V15.4477H18.5234V7.90942ZM9.4284 19.2607V19.9982H10.725V23.8996H11.6191V19.9684H12.8263V19.2309L9.4284 19.2612V19.2607ZM8.76065 20.175V19.4375C8.04339 19.1132 7.21855 19.0152 6.37401 19.4375C4.98901 20.0568 4.9395 23.1233 6.32502 23.7228C7.12056 24.1259 8.77984 23.939 8.94703 23.5849V21.1574H7.29735V21.7964H8.0237V23.0743C5.63706 24.234 5.19509 18.6612 8.76065 20.175ZM14.2805 21.757H15.1346C15.8418 21.7868 16.0286 23.1233 15.1053 23.1132H14.2805V21.757ZM14.2805 19.88H15.1346C15.8418 20.0078 15.5867 21.0594 15.1053 21.0887H14.2805V19.88ZM13.3965 19.1627V23.8602H15.7438C16.9419 23.4279 16.9914 21.5706 15.7438 21.3736C16.8929 21.2463 16.952 19.1329 14.9679 19.1329L13.3965 19.1627ZM17.5409 20.4795V21.1771C18.1693 21.0003 19.5346 20.5088 19.4068 21.5509C18.2087 21.4721 17.3935 21.6883 17.2561 22.4348C17.0303 24.0471 18.7588 24.2042 19.4856 23.4082V23.7915H20.3105V20.9609C20.1044 20.0467 18.7396 19.929 17.5409 20.4795ZM18.238 22.2979C18.4249 22.0519 19.0239 22.0615 19.4265 22.1797V22.799C18.7689 23.5062 17.7081 23.1824 18.2385 22.2974L18.238 22.2979ZM22.0197 21.315C22.2359 21.0791 23.385 20.6366 23.5618 21.315V23.8112H24.4847V21.1675C24.2882 20.0664 23.237 19.8699 21.9606 20.6169V20.2043H21.0868V23.8309H22.0096L22.0197 21.315ZM27.382 20.1649L26.1742 21.7863L27.4512 23.7814L28.5609 23.7521L27.1567 21.8358L28.4235 20.1942L27.3825 20.1649H27.382ZM25.1726 18.9753H26.0859V23.7814H25.1721V18.9758L25.1726 18.9753Z" fill="white"/>
<path fill-rule="evenodd" clip-rule="evenodd" d="M18.5235 7.90942H26.0465V15.4477H18.5235V7.90942Z" fill="white"/>
</svg>
