<svg width="20" height="20" viewBox="0 0 20 20" fill="none" xmlns="http://www.w3.org/2000/svg">
<path d="M16 7.75H9.25C8.42157 7.75 7.75 8.42157 7.75 9.25V16C7.75 16.8284 8.42157 17.5 9.25 17.5H16C16.8284 17.5 17.5 16.8284 17.5 16V9.25C17.5 8.42157 16.8284 7.75 16 7.75Z" stroke="#D6301F" stroke-width="1.5" stroke-linecap="round" stroke-linejoin="round"/>
<path d="M4.75 12.25H4C3.60218 12.25 3.22064 12.092 2.93934 11.8107C2.65804 11.5294 2.5 11.1478 2.5 10.75V4C2.5 3.60218 2.65804 3.22064 2.93934 2.93934C3.22064 2.65804 3.60218 2.5 4 2.5H10.75C11.1478 2.5 11.5294 2.65804 11.8107 2.93934C12.092 3.22064 12.25 3.60218 12.25 4V4.75" stroke="#D6301F" stroke-width="1.5" stroke-linecap="round" stroke-linejoin="round"/>
</svg>
