<svg width="32" height="32" viewBox="0 0 32 32" fill="none" xmlns="http://www.w3.org/2000/svg">
<path d="M29.2 25.5999V18.3999H22" stroke="#747474" stroke-width="2.4" stroke-linecap="round" stroke-linejoin="round"/>
<path d="M2.79999 6.3999V13.5999H9.99999" stroke="#747474" stroke-width="2.4" stroke-linecap="round" stroke-linejoin="round"/>
<path d="M26.188 12.3998C25.5794 10.6799 24.545 9.14228 23.1814 7.9303C21.8178 6.71832 20.1694 5.87152 18.39 5.46891C16.6107 5.0663 14.7583 5.12101 13.0058 5.62793C11.2532 6.13485 9.65768 7.07745 8.36799 8.3678L2.79999 13.5998M29.2 18.3998L23.632 23.6318C22.3423 24.9221 20.7467 25.8648 18.9942 26.3717C17.2417 26.8786 15.3893 26.9333 13.6099 26.5307C11.8305 26.1281 10.1821 25.2813 8.81855 24.0693C7.45495 22.8573 6.42059 21.3197 5.81199 19.5998" stroke="#747474" stroke-width="2.4" stroke-linecap="round" stroke-linejoin="round"/>
</svg>
