<svg width="24" height="24" viewBox="0 0 24 24" fill="none" xmlns="http://www.w3.org/2000/svg">
<path d="M10.11 5.01607C10.7295 4.87106 11.3638 4.79858 12 4.80007C18.3 4.80007 21.9 12.0001 21.9 12.0001C21.3537 13.0221 20.7022 13.9843 19.956 14.8711M13.908 13.9081C13.6608 14.1733 13.3627 14.3861 13.0316 14.5337C12.7004 14.6813 12.3428 14.7606 11.9803 14.767C11.6178 14.7734 11.2577 14.7067 10.9215 14.5709C10.5853 14.4351 10.2799 14.233 10.0235 13.9766C9.76709 13.7202 9.56497 13.4148 9.42917 13.0786C9.29338 12.7424 9.22669 12.3823 9.23308 12.0198C9.23948 11.6573 9.31883 11.2997 9.4664 10.9685C9.61397 10.6373 9.82674 10.3393 10.092 10.0921M17.346 17.3461C15.8075 18.5188 13.9342 19.1684 12 19.2001C5.70001 19.2001 2.10001 12.0001 2.10001 12.0001C3.21951 9.91378 4.77224 8.09102 6.65401 6.65407L17.346 17.3461Z" stroke="#36394A" stroke-width="1.71429" stroke-linecap="round" stroke-linejoin="round"/>
<path d="M2.10001 2.09998L21.9 21.9" stroke="#36394A" stroke-width="1.71429" stroke-linecap="round" stroke-linejoin="round"/>
</svg>
