<svg width="107" height="107" viewBox="0 0 107 107" fill="none" xmlns="http://www.w3.org/2000/svg">
<g clip-path="url(#clip0_696_8120)">
<path d="M53.5 107C83.0472 107 107 83.0472 107 53.5C107 23.9528 83.0472 0 53.5 0C23.9528 0 0 23.9528 0 53.5C0 83.0472 23.9528 107 53.5 107Z" fill="#50B748"/>
<path d="M63.6479 106.007C63.8064 105.982 63.9648 105.956 64.123 105.93C65.8717 105.576 67.6015 105.135 69.3061 104.608C71.0104 104.082 72.6874 103.473 74.3308 102.78C75.9735 102.086 77.5805 101.31 79.1458 100.456C80.7139 99.5983 82.2381 98.6627 83.7126 97.6525C85.1836 96.6469 86.6035 95.5684 87.9669 94.4211C89.3308 93.2716 90.6364 92.0545 91.8788 90.7746C93.1207 89.4932 94.2978 88.1504 95.4055 86.7514C96.5144 85.356 97.5529 83.9062 98.5171 82.4072C99.4827 80.9061 100.373 79.3577 101.184 77.7676C101.992 76.1786 102.72 74.5502 103.366 72.8884C104.013 71.2256 104.576 69.5314 105.053 67.8124C105.421 66.4316 105.733 65.0366 105.99 63.6308L74.6732 32.3269C71.8966 29.5399 68.5968 27.329 64.9632 25.8211C61.3297 24.3132 57.4341 23.538 53.5 23.54C36.9792 23.54 23.54 36.9792 23.54 53.5C23.54 59.6932 25.4318 65.4541 28.6632 70.2348V70.2434C29.2025 71.0395 29.776 71.8056 30.388 72.5418V72.5503C30.9958 73.2908 31.6506 73.997 32.3269 74.6732L63.6479 106.007Z" fill="#10A711"/>
<path d="M53.5 23.54C36.9792 23.54 23.54 36.9792 23.54 53.5C23.54 70.0208 36.9792 83.46 53.5 83.46C70.0208 83.46 83.46 70.0208 83.46 53.5C83.46 36.9792 70.0208 23.54 53.5 23.54ZM53.5 27.82C67.7096 27.82 79.18 39.2904 79.18 53.5C79.18 67.7096 67.7096 79.18 53.5 79.18C39.2904 79.18 27.82 67.7096 27.82 53.5C27.82 39.2904 39.2904 27.82 53.5 27.82ZM66.9649 41.2849L47.08 61.1655L40.0394 54.1249L37.0049 57.1552L47.08 67.226L69.9994 44.3152L66.9649 41.2849Z" fill="white"/>
</g>
<defs>
<clipPath id="clip0_696_8120">
<rect width="107" height="107" fill="white"/>
</clipPath>
</defs>
</svg>
